<?xml version="1.0" encoding="utf-8" standalone="no"?>
<!DOCTYPE svg PUBLIC "-//W3C//DTD SVG 1.1//EN"
  "http://www.w3.org/Graphics/SVG/1.1/DTD/svg11.dtd">
<svg xmlns:xlink="http://www.w3.org/1999/xlink" width="438.725pt" height="222.979094pt" viewBox="0 0 438.725 222.979094" xmlns="http://www.w3.org/2000/svg" version="1.1">
 <metadata>
  <rdf:RDF xmlns:dc="http://purl.org/dc/elements/1.1/" xmlns:cc="http://creativecommons.org/ns#" xmlns:rdf="http://www.w3.org/1999/02/22-rdf-syntax-ns#">
   <cc:Work>
    <dc:type rdf:resource="http://purl.org/dc/dcmitype/StillImage"/>
    <dc:date>2026-10-07T20:32:04.332227</dc:date>
    <dc:format>image/svg+xml</dc:format>
    <dc:creator>
     <cc:Agent>
      <dc:title>Matplotlib v3.11.2, https://matplotlib.org/</dc:title>
     </cc:Agent>
    </dc:creator>
   </cc:Work>
  </rdf:RDF>
 </metadata>
 <defs>
  <style type="text/css">*{stroke-linejoin: round; stroke-linecap: butt}</style>
 </defs>
 <g id="figure_1">
  <g id="patch_1">
   <path d="M 0 222.979094 
L 438.725 222.979094 
L 438.725 0 
L 0 0 
z
" style="fill: #ffffff"/>
  </g>
  <g id="axes_1">
   <g id="patch_2">
    <path d="M 40.925 184.608 
L 431.525 184.608 
L 431.525 7.2 
L 40.925 7.2 
z
" style="fill: #ffffff"/>
   </g>
   <g id="matplotlib.axis_1">
    <g id="xtick_1">
     <g id="line2d_1">
      <defs>
       <path id="mc7a60ee2c8" d="M 0 0 
L 0 3.5 
" style="stroke: #000000; stroke-width: 0.8"/>
      </defs>
      <g>
       <use xlink:href="#mc7a60ee2c8" x="63.178748" y="184.608" style="stroke: #000000; stroke-width: 0.8"/>
      </g>
     </g>
     <g id="text_1">
      <!-- 20 -->
      <g transform="translate(56.816248 199.205656) scale(0.1 -0.1)">
       <defs>
        <path id="DejaVuSans-15" d="M 1228 531 
L 3431 531 
L 3431 0 
L 469 0 
L 469 531 
Q 828 903 1448 1529 
Q 2069 2156 2228 2338 
Q 2531 2678 2651 2914 
Q 2772 3150 2772 3378 
Q 2772 3750 2511 3984 
Q 2250 4219 1831 4219 
Q 1534 4219 1204 4116 
Q 875 4013 500 3803 
L 500 4441 
Q 881 4594 1212 4672 
Q 1544 4750 1819 4750 
Q 2544 4750 2975 4387 
Q 3406 4025 3406 3419 
Q 3406 3131 3298 2873 
Q 3191 2616 2906 2266 
Q 2828 2175 2409 1742 
Q 1991 1309 1228 531 
z
" transform="scale(0.015625)"/>
        <path id="DejaVuSans-13" d="M 2034 4250 
Q 1547 4250 1301 3770 
Q 1056 3291 1056 2328 
Q 1056 1369 1301 889 
Q 1547 409 2034 409 
Q 2525 409 2770 889 
Q 3016 1369 3016 2328 
Q 3016 3291 2770 3770 
Q 2525 4250 2034 4250 
z
M 2034 4750 
Q 2819 4750 3233 4129 
Q 3647 3509 3647 2328 
Q 3647 1150 3233 529 
Q 2819 -91 2034 -91 
Q 1250 -91 836 529 
Q 422 1150 422 2328 
Q 422 3509 836 4129 
Q 1250 4750 2034 4750 
z
" transform="scale(0.015625)"/>
       </defs>
       <use xlink:href="#DejaVuSans-15"/>
       <use xlink:href="#DejaVuSans-13" transform="translate(63.625 0)"/>
      </g>
     </g>
    </g>
    <g id="xtick_2">
     <g id="line2d_2">
      <g>
       <use xlink:href="#mc7a60ee2c8" x="270.83425" y="184.608" style="stroke: #000000; stroke-width: 0.8"/>
      </g>
     </g>
     <g id="text_2">
      <!-- 50 -->
      <g transform="translate(264.47175 199.205656) scale(0.1 -0.1)">
       <defs>
        <path id="DejaVuSans-18" d="M 691 4666 
L 3169 4666 
L 3169 4134 
L 1269 4134 
L 1269 2991 
Q 1406 3038 1543 3061 
Q 1681 3084 1819 3084 
Q 2600 3084 3056 2656 
Q 3513 2228 3513 1497 
Q 3513 744 3044 326 
Q 2575 -91 1722 -91 
Q 1428 -91 1123 -41 
Q 819 9 494 109 
L 494 744 
Q 775 591 1075 516 
Q 1375 441 1709 441 
Q 2250 441 2565 725 
Q 2881 1009 2881 1497 
Q 2881 1984 2565 2268 
Q 2250 2553 1709 2553 
Q 1456 2553 1204 2497 
Q 953 2441 691 2322 
L 691 4666 
z
" transform="scale(0.015625)"/>
       </defs>
       <use xlink:href="#DejaVuSans-18"/>
       <use xlink:href="#DejaVuSans-13" transform="translate(63.625 0)"/>
      </g>
     </g>
    </g>
    <g id="xtick_3">
     <g id="line2d_3">
      <g>
       <use xlink:href="#mc7a60ee2c8" x="409.271252" y="184.608" style="stroke: #000000; stroke-width: 0.8"/>
      </g>
     </g>
     <g id="text_3">
      <!-- 70 -->
      <g transform="translate(402.908752 199.205656) scale(0.1 -0.1)">
       <defs>
        <path id="DejaVuSans-1a" d="M 525 4666 
L 3525 4666 
L 3525 4397 
L 1831 0 
L 1172 0 
L 2766 4134 
L 525 4134 
L 525 4666 
z
" transform="scale(0.015625)"/>
       </defs>
       <use xlink:href="#DejaVuSans-1a"/>
       <use xlink:href="#DejaVuSans-13" transform="translate(63.625 0)"/>
      </g>
     </g>
    </g>
    <g id="text_4">
     <!-- Общая операционная нагрузка, % -->
     <g transform="translate(145.516406 213.37675) scale(0.1 -0.1)">
      <defs>
       <path id="DejaVuSans-3b2" d="M 2522 4238 
Q 1834 4238 1429 3725 
Q 1025 3213 1025 2328 
Q 1025 1447 1429 934 
Q 1834 422 2522 422 
Q 3209 422 3611 934 
Q 4013 1447 4013 2328 
Q 4013 3213 3611 3725 
Q 3209 4238 2522 4238 
z
M 2522 4750 
Q 3503 4750 4090 4092 
Q 4678 3434 4678 2328 
Q 4678 1225 4090 567 
Q 3503 -91 2522 -91 
Q 1538 -91 948 565 
Q 359 1222 359 2328 
Q 359 3434 948 4092 
Q 1538 4750 2522 4750 
z
" transform="scale(0.015625)"/>
       <path id="DejaVuSans-3c5" d="M 1991 3584 
Q 2741 3584 3169 3096 
Q 3597 2609 3597 1747 
Q 3597 888 3169 398 
Q 2741 -91 1991 -91 
Q 1238 -91 822 384 
Q 406 859 384 1747 
L 366 2463 
Q 350 2834 350 2963 
Q 350 3463 531 3831 
Q 816 4409 1308 4659 
Q 1800 4909 2625 4916 
Q 3006 4919 3175 4972 
L 3334 4516 
Q 3181 4453 3041 4450 
L 2259 4397 
Q 1866 4369 1628 4231 
Q 1006 3866 947 3388 
L 925 3213 
Q 1331 3584 1991 3584 
z
M 1991 3097 
Q 1528 3097 1259 2736 
Q 991 2375 991 1747 
Q 991 1119 1258 758 
Q 1525 397 1991 397 
Q 2450 397 2719 759 
Q 2988 1122 2988 1747 
Q 2988 2369 2719 2733 
Q 2450 3097 1991 3097 
z
" transform="scale(0.015625)"/>
       <path id="DejaVuSans-3dd" d="M 5275 0 
L 581 0 
L 581 3500 
L 1159 3500 
L 1159 459 
L 2638 459 
L 2638 3500 
L 3216 3500 
L 3216 459 
L 4697 459 
L 4697 3500 
L 5275 3500 
L 5275 459 
L 5734 459 
L 5734 -884 
L 5275 -884 
L 5275 0 
z
" transform="scale(0.015625)"/>
       <path id="DejaVuSans-3c4" d="M 2194 1759 
Q 1497 1759 1228 1600 
Q 959 1441 959 1056 
Q 959 750 1161 570 
Q 1363 391 1709 391 
Q 2188 391 2477 730 
Q 2766 1069 2766 1631 
L 2766 1759 
L 2194 1759 
z
M 3341 1997 
L 3341 0 
L 2766 0 
L 2766 531 
Q 2569 213 2275 61 
Q 1981 -91 1556 -91 
Q 1019 -91 701 211 
Q 384 513 384 1019 
Q 384 1609 779 1909 
Q 1175 2209 1959 2209 
L 2766 2209 
L 2766 2266 
Q 2766 2663 2505 2880 
Q 2244 3097 1772 3097 
Q 1472 3097 1187 3025 
Q 903 2953 641 2809 
L 641 3341 
Q 956 3463 1253 3523 
Q 1550 3584 1831 3584 
Q 2591 3584 2966 3190 
Q 3341 2797 3341 1997 
z
" transform="scale(0.015625)"/>
       <path id="DejaVuSans-3e3" d="M 1181 2491 
Q 1181 2231 1381 2084 
Q 1581 1938 1953 1938 
L 2728 1938 
L 2728 3041 
L 1953 3041 
Q 1581 3041 1381 2897 
Q 1181 2753 1181 2491 
z
M 363 0 
L 1431 1534 
Q 1069 1616 828 1830 
Q 588 2044 588 2491 
Q 588 2997 923 3248 
Q 1259 3500 1938 3500 
L 3306 3500 
L 3306 0 
L 2728 0 
L 2728 1478 
L 2013 1478 
L 981 0 
L 363 0 
z
" transform="scale(0.015625)"/>
       <path id="DejaVuSans-3" transform="scale(0.015625)"/>
       <path id="DejaVuSans-3d2" d="M 1959 3097 
Q 1497 3097 1228 2736 
Q 959 2375 959 1747 
Q 959 1119 1226 758 
Q 1494 397 1959 397 
Q 2419 397 2687 759 
Q 2956 1122 2956 1747 
Q 2956 2369 2687 2733 
Q 2419 3097 1959 3097 
z
M 1959 3584 
Q 2709 3584 3137 3096 
Q 3566 2609 3566 1747 
Q 3566 888 3137 398 
Q 2709 -91 1959 -91 
Q 1206 -91 779 398 
Q 353 888 353 1747 
Q 353 2609 779 3096 
Q 1206 3584 1959 3584 
z
" transform="scale(0.015625)"/>
       <path id="DejaVuSans-3d3" d="M 3603 3500 
L 3603 0 
L 3025 0 
L 3025 3041 
L 1159 3041 
L 1159 0 
L 581 0 
L 581 3500 
L 3603 3500 
z
" transform="scale(0.015625)"/>
       <path id="DejaVuSans-3c9" d="M 3597 1894 
L 3597 1613 
L 953 1613 
Q 991 1019 1311 708 
Q 1631 397 2203 397 
Q 2534 397 2845 478 
Q 3156 559 3463 722 
L 3463 178 
Q 3153 47 2828 -22 
Q 2503 -91 2169 -91 
Q 1331 -91 842 396 
Q 353 884 353 1716 
Q 353 2575 817 3079 
Q 1281 3584 2069 3584 
Q 2775 3584 3186 3129 
Q 3597 2675 3597 1894 
z
M 3022 2063 
Q 3016 2534 2758 2815 
Q 2500 3097 2075 3097 
Q 1594 3097 1305 2825 
Q 1016 2553 972 2059 
L 3022 2063 
z
" transform="scale(0.015625)"/>
       <path id="DejaVuSans-3d4" d="M 1159 525 
L 1159 -1331 
L 581 -1331 
L 581 3500 
L 1159 3500 
L 1159 2969 
Q 1341 3281 1617 3432 
Q 1894 3584 2278 3584 
Q 2916 3584 3314 3078 
Q 3713 2572 3713 1747 
Q 3713 922 3314 415 
Q 2916 -91 2278 -91 
Q 1894 -91 1617 61 
Q 1341 213 1159 525 
z
M 3116 1747 
Q 3116 2381 2855 2742 
Q 2594 3103 2138 3103 
Q 1681 3103 1420 2742 
Q 1159 2381 1159 1747 
Q 1159 1113 1420 752 
Q 1681 391 2138 391 
Q 2594 391 2855 752 
Q 3116 1113 3116 1747 
z
" transform="scale(0.015625)"/>
       <path id="DejaVuSans-3da" d="M 3603 0 
L 581 0 
L 581 3500 
L 1159 3500 
L 1159 459 
L 3025 459 
L 3025 3500 
L 3603 3500 
L 3603 459 
L 4063 459 
L 4063 -884 
L 3603 -884 
L 3603 0 
z
" transform="scale(0.015625)"/>
       <path id="DejaVuSans-3cc" d="M 3578 3500 
L 3578 0 
L 3006 0 
L 3006 2809 
L 1319 0 
L 581 0 
L 581 3500 
L 1153 3500 
L 1153 697 
L 2838 3500 
L 3578 3500 
z
" transform="scale(0.015625)"/>
       <path id="DejaVuSans-3d1" d="M 581 3500 
L 1159 3500 
L 1159 2072 
L 3025 2072 
L 3025 3500 
L 3603 3500 
L 3603 0 
L 3025 0 
L 3025 1613 
L 1159 1613 
L 1159 0 
L 581 0 
L 581 3500 
z
" transform="scale(0.015625)"/>
       <path id="DejaVuSans-3c7" d="M 581 0 
L 581 3500 
L 3050 3500 
L 3050 3041 
L 1159 3041 
L 1159 0 
L 581 0 
z
" transform="scale(0.015625)"/>
       <path id="DejaVuSans-3d7" d="M 2059 -325 
Q 1816 -950 1584 -1140 
Q 1353 -1331 966 -1331 
L 506 -1331 
L 506 -850 
L 844 -850 
Q 1081 -850 1212 -737 
Q 1344 -625 1503 -206 
L 1606 56 
L 191 3500 
L 800 3500 
L 1894 763 
L 2988 3500 
L 3597 3500 
L 2059 -325 
z
" transform="scale(0.015625)"/>
       <path id="DejaVuSans-3cb" d="M 2206 1888 
Q 2594 1813 2809 1584 
Q 3025 1356 3025 1019 
Q 3025 478 2622 193 
Q 2219 -91 1475 -91 
Q 1225 -91 961 -47 
Q 697 -3 416 84 
L 416 619 
Q 638 503 903 445 
Q 1169 388 1459 388 
Q 1931 388 2195 563 
Q 2459 738 2459 1019 
Q 2459 1294 2225 1461 
Q 1991 1628 1563 1628 
L 1100 1628 
L 1100 2103 
L 1584 2103 
Q 1947 2103 2158 2242 
Q 2369 2381 2369 2600 
Q 2369 2800 2151 2944 
Q 1934 3088 1563 3088 
Q 1341 3088 1089 3047 
Q 838 3006 534 2916 
L 534 3438 
Q 841 3513 1106 3550 
Q 1372 3588 1609 3588 
Q 2222 3588 2576 3342 
Q 2931 3097 2931 2656 
Q 2931 2366 2743 2164 
Q 2556 1963 2206 1888 
z
" transform="scale(0.015625)"/>
       <path id="DejaVuSans-3ce" d="M 581 3500 
L 1153 3500 
L 1153 1856 
L 2775 3500 
L 3481 3500 
L 2144 2147 
L 3653 0 
L 3009 0 
L 1769 1766 
L 1153 1141 
L 1153 0 
L 581 0 
L 581 3500 
z
" transform="scale(0.015625)"/>
       <path id="DejaVuSans-f" d="M 750 794 
L 1409 794 
L 1409 256 
L 897 -744 
L 494 -744 
L 750 256 
L 750 794 
z
" transform="scale(0.015625)"/>
       <path id="DejaVuSans-8" d="M 4653 2053 
Q 4381 2053 4226 1822 
Q 4072 1591 4072 1178 
Q 4072 772 4226 539 
Q 4381 306 4653 306 
Q 4919 306 5073 539 
Q 5228 772 5228 1178 
Q 5228 1588 5073 1820 
Q 4919 2053 4653 2053 
z
M 4653 2450 
Q 5147 2450 5437 2106 
Q 5728 1763 5728 1178 
Q 5728 594 5436 251 
Q 5144 -91 4653 -91 
Q 4153 -91 3862 251 
Q 3572 594 3572 1178 
Q 3572 1766 3864 2108 
Q 4156 2450 4653 2450 
z
M 1428 4353 
Q 1159 4353 1004 4120 
Q 850 3888 850 3481 
Q 850 3069 1003 2837 
Q 1156 2606 1428 2606 
Q 1700 2606 1854 2837 
Q 2009 3069 2009 3481 
Q 2009 3884 1853 4118 
Q 1697 4353 1428 4353 
z
M 4250 4750 
L 4750 4750 
L 1831 -91 
L 1331 -91 
L 4250 4750 
z
M 1428 4750 
Q 1922 4750 2215 4408 
Q 2509 4066 2509 3481 
Q 2509 2891 2217 2550 
Q 1925 2209 1428 2209 
Q 931 2209 642 2551 
Q 353 2894 353 3481 
Q 353 4063 643 4406 
Q 934 4750 1428 4750 
z
" transform="scale(0.015625)"/>
      </defs>
      <use xlink:href="#DejaVuSans-3b2"/>
      <use xlink:href="#DejaVuSans-3c5" transform="translate(78.71875 0)"/>
      <use xlink:href="#DejaVuSans-3dd" transform="translate(140.390625 0)"/>
      <use xlink:href="#DejaVuSans-3c4" transform="translate(234.578125 0)"/>
      <use xlink:href="#DejaVuSans-3e3" transform="translate(295.859375 0)"/>
      <use xlink:href="#DejaVuSans-3" transform="translate(356.015625 0)"/>
      <use xlink:href="#DejaVuSans-3d2" transform="translate(387.796875 0)"/>
      <use xlink:href="#DejaVuSans-3d3" transform="translate(448.984375 0)"/>
      <use xlink:href="#DejaVuSans-3c9" transform="translate(514.359375 0)"/>
      <use xlink:href="#DejaVuSans-3d4" transform="translate(575.890625 0)"/>
      <use xlink:href="#DejaVuSans-3c4" transform="translate(639.375 0)"/>
      <use xlink:href="#DejaVuSans-3da" transform="translate(700.65625 0)"/>
      <use xlink:href="#DejaVuSans-3cc" transform="translate(768.71875 0)"/>
      <use xlink:href="#DejaVuSans-3d2" transform="translate(833.703125 0)"/>
      <use xlink:href="#DejaVuSans-3d1" transform="translate(894.890625 0)"/>
      <use xlink:href="#DejaVuSans-3d1" transform="translate(960.265625 0)"/>
      <use xlink:href="#DejaVuSans-3c4" transform="translate(1025.640625 0)"/>
      <use xlink:href="#DejaVuSans-3e3" transform="translate(1086.921875 0)"/>
      <use xlink:href="#DejaVuSans-3" transform="translate(1147.078125 0)"/>
      <use xlink:href="#DejaVuSans-3d1" transform="translate(1178.859375 0)"/>
      <use xlink:href="#DejaVuSans-3c4" transform="translate(1244.234375 0)"/>
      <use xlink:href="#DejaVuSans-3c7" transform="translate(1305.515625 0)"/>
      <use xlink:href="#DejaVuSans-3d4" transform="translate(1358.0625 0)"/>
      <use xlink:href="#DejaVuSans-3d7" transform="translate(1421.546875 0)"/>
      <use xlink:href="#DejaVuSans-3cb" transform="translate(1480.734375 0)"/>
      <use xlink:href="#DejaVuSans-3ce" transform="translate(1533.90625 0)"/>
      <use xlink:href="#DejaVuSans-3c4" transform="translate(1594.3125 0)"/>
      <use xlink:href="#DejaVuSans-f" transform="translate(1655.59375 0)"/>
      <use xlink:href="#DejaVuSans-3" transform="translate(1687.375 0)"/>
      <use xlink:href="#DejaVuSans-8" transform="translate(1719.15625 0)"/>
     </g>
    </g>
   </g>
   <g id="matplotlib.axis_2">
    <g id="ytick_1">
     <g id="line2d_4">
      <path d="M 40.925 184.608 
L 431.525 184.608 
" clip-path="url(#pb29210f502)" style="fill: none; stroke: #b0b0b0; stroke-opacity: 0.2; stroke-width: 0.8; stroke-linecap: square"/>
     </g>
     <g id="line2d_5">
      <defs>
       <path id="mc5e7a844f7" d="M 0 0 
L -3.5 0 
" style="stroke: #000000; stroke-width: 0.8"/>
      </defs>
      <g>
       <use xlink:href="#mc5e7a844f7" x="40.925" y="184.608" style="stroke: #000000; stroke-width: 0.8"/>
      </g>
     </g>
     <g id="text_5">
      <!-- 0 -->
      <g transform="translate(27.5625 188.406828) scale(0.1 -0.1)">
       <use xlink:href="#DejaVuSans-13"/>
      </g>
     </g>
    </g>
    <g id="ytick_2">
     <g id="line2d_6">
      <path d="M 40.925 152.352 
L 431.525 152.352 
" clip-path="url(#pb29210f502)" style="fill: none; stroke: #b0b0b0; stroke-opacity: 0.2; stroke-width: 0.8; stroke-linecap: square"/>
     </g>
     <g id="line2d_7">
      <g>
       <use xlink:href="#mc5e7a844f7" x="40.925" y="152.352" style="stroke: #000000; stroke-width: 0.8"/>
      </g>
     </g>
     <g id="text_6">
      <!-- 2 -->
      <g transform="translate(27.5625 156.150828) scale(0.1 -0.1)">
       <use xlink:href="#DejaVuSans-15"/>
      </g>
     </g>
    </g>
    <g id="ytick_3">
     <g id="line2d_8">
      <path d="M 40.925 120.096 
L 431.525 120.096 
" clip-path="url(#pb29210f502)" style="fill: none; stroke: #b0b0b0; stroke-opacity: 0.2; stroke-width: 0.8; stroke-linecap: square"/>
     </g>
     <g id="line2d_9">
      <g>
       <use xlink:href="#mc5e7a844f7" x="40.925" y="120.096" style="stroke: #000000; stroke-width: 0.8"/>
      </g>
     </g>
     <g id="text_7">
      <!-- 4 -->
      <g transform="translate(27.5625 123.894828) scale(0.1 -0.1)">
       <defs>
        <path id="DejaVuSans-17" d="M 2419 4116 
L 825 1625 
L 2419 1625 
L 2419 4116 
z
M 2253 4666 
L 3047 4666 
L 3047 1625 
L 3713 1625 
L 3713 1100 
L 3047 1100 
L 3047 0 
L 2419 0 
L 2419 1100 
L 313 1100 
L 313 1709 
L 2253 4666 
z
" transform="scale(0.015625)"/>
       </defs>
       <use xlink:href="#DejaVuSans-17"/>
      </g>
     </g>
    </g>
    <g id="ytick_4">
     <g id="line2d_10">
      <path d="M 40.925 87.84 
L 431.525 87.84 
" clip-path="url(#pb29210f502)" style="fill: none; stroke: #b0b0b0; stroke-opacity: 0.2; stroke-width: 0.8; stroke-linecap: square"/>
     </g>
     <g id="line2d_11">
      <g>
       <use xlink:href="#mc5e7a844f7" x="40.925" y="87.84" style="stroke: #000000; stroke-width: 0.8"/>
      </g>
     </g>
     <g id="text_8">
      <!-- 6 -->
      <g transform="translate(27.5625 91.638828) scale(0.1 -0.1)">
       <defs>
        <path id="DejaVuSans-19" d="M 2113 2584 
Q 1688 2584 1439 2293 
Q 1191 2003 1191 1497 
Q 1191 994 1439 701 
Q 1688 409 2113 409 
Q 2538 409 2786 701 
Q 3034 994 3034 1497 
Q 3034 2003 2786 2293 
Q 2538 2584 2113 2584 
z
M 3366 4563 
L 3366 3988 
Q 3128 4100 2886 4159 
Q 2644 4219 2406 4219 
Q 1781 4219 1451 3797 
Q 1122 3375 1075 2522 
Q 1259 2794 1537 2939 
Q 1816 3084 2150 3084 
Q 2853 3084 3261 2657 
Q 3669 2231 3669 1497 
Q 3669 778 3244 343 
Q 2819 -91 2113 -91 
Q 1303 -91 875 529 
Q 447 1150 447 2328 
Q 447 3434 972 4092 
Q 1497 4750 2381 4750 
Q 2619 4750 2861 4703 
Q 3103 4656 3366 4563 
z
" transform="scale(0.015625)"/>
       </defs>
       <use xlink:href="#DejaVuSans-19"/>
      </g>
     </g>
    </g>
    <g id="ytick_5">
     <g id="line2d_12">
      <path d="M 40.925 55.584 
L 431.525 55.584 
" clip-path="url(#pb29210f502)" style="fill: none; stroke: #b0b0b0; stroke-opacity: 0.2; stroke-width: 0.8; stroke-linecap: square"/>
     </g>
     <g id="line2d_13">
      <g>
       <use xlink:href="#mc5e7a844f7" x="40.925" y="55.584" style="stroke: #000000; stroke-width: 0.8"/>
      </g>
     </g>
     <g id="text_9">
      <!-- 8 -->
      <g transform="translate(27.5625 59.382828) scale(0.1 -0.1)">
       <defs>
        <path id="DejaVuSans-1b" d="M 2034 2216 
Q 1584 2216 1326 1975 
Q 1069 1734 1069 1313 
Q 1069 891 1326 650 
Q 1584 409 2034 409 
Q 2484 409 2743 651 
Q 3003 894 3003 1313 
Q 3003 1734 2745 1975 
Q 2488 2216 2034 2216 
z
M 1403 2484 
Q 997 2584 770 2862 
Q 544 3141 544 3541 
Q 544 4100 942 4425 
Q 1341 4750 2034 4750 
Q 2731 4750 3128 4425 
Q 3525 4100 3525 3541 
Q 3525 3141 3298 2862 
Q 3072 2584 2669 2484 
Q 3125 2378 3379 2068 
Q 3634 1759 3634 1313 
Q 3634 634 3220 271 
Q 2806 -91 2034 -91 
Q 1263 -91 848 271 
Q 434 634 434 1313 
Q 434 1759 690 2068 
Q 947 2378 1403 2484 
z
M 1172 3481 
Q 1172 3119 1398 2916 
Q 1625 2713 2034 2713 
Q 2441 2713 2670 2916 
Q 2900 3119 2900 3481 
Q 2900 3844 2670 4047 
Q 2441 4250 2034 4250 
Q 1625 4250 1398 4047 
Q 1172 3844 1172 3481 
z
" transform="scale(0.015625)"/>
       </defs>
       <use xlink:href="#DejaVuSans-1b"/>
      </g>
     </g>
    </g>
    <g id="ytick_6">
     <g id="line2d_14">
      <path d="M 40.925 23.328 
L 431.525 23.328 
" clip-path="url(#pb29210f502)" style="fill: none; stroke: #b0b0b0; stroke-opacity: 0.2; stroke-width: 0.8; stroke-linecap: square"/>
     </g>
     <g id="line2d_15">
      <g>
       <use xlink:href="#mc5e7a844f7" x="40.925" y="23.328" style="stroke: #000000; stroke-width: 0.8"/>
      </g>
     </g>
     <g id="text_10">
      <!-- 10 -->
      <g transform="translate(21.2 27.126828) scale(0.1 -0.1)">
       <defs>
        <path id="DejaVuSans-14" d="M 794 531 
L 1825 531 
L 1825 4091 
L 703 3866 
L 703 4441 
L 1819 4666 
L 2450 4666 
L 2450 531 
L 3481 531 
L 3481 0 
L 794 0 
L 794 531 
z
" transform="scale(0.015625)"/>
       </defs>
       <use xlink:href="#DejaVuSans-14"/>
       <use xlink:href="#DejaVuSans-13" transform="translate(63.625 0)"/>
      </g>
     </g>
    </g>
    <g id="text_11">
     <!-- Изменение доли SMF3, п.п. -->
     <g transform="translate(14.797656 167.670406) rotate(-90) scale(0.1 -0.1)">
      <defs>
       <path id="DejaVuSans-3ac" d="M 4159 4666 
L 4159 0 
L 3547 0 
L 3547 3903 
L 1478 0 
L 628 0 
L 628 4666 
L 1241 4666 
L 1241 763 
L 3309 4666 
L 4159 4666 
z
" transform="scale(0.015625)"/>
       <path id="DejaVuSans-3d0" d="M 581 3500 
L 1422 3500 
L 2416 1156 
L 3413 3500 
L 4247 3500 
L 4247 0 
L 3669 0 
L 3669 2950 
L 2703 672 
L 2128 672 
L 1159 2950 
L 1159 0 
L 581 0 
L 581 3500 
z
" transform="scale(0.015625)"/>
       <path id="DejaVuSans-3c8" d="M 1384 459 
L 3053 459 
L 3053 3041 
L 1844 3041 
L 1844 2603 
Q 1844 1316 1475 628 
L 1384 459 
z
M 550 459 
Q 834 584 959 850 
Q 1266 1509 1266 2838 
L 1266 3500 
L 3631 3500 
L 3631 459 
L 4091 459 
L 4091 -884 
L 3631 -884 
L 3631 0 
L 794 0 
L 794 -884 
L 334 -884 
L 334 459 
L 550 459 
z
" transform="scale(0.015625)"/>
       <path id="DejaVuSans-3cf" d="M 238 0 
L 238 478 
Q 806 566 981 959 
Q 1194 1513 1194 2928 
L 1194 3500 
L 3559 3500 
L 3559 0 
L 2984 0 
L 2984 3041 
L 1769 3041 
L 1769 2694 
Q 1769 1344 1494 738 
Q 1200 91 238 0 
z
" transform="scale(0.015625)"/>
       <path id="DejaVuSans-36" d="M 3425 4513 
L 3425 3897 
Q 3066 4069 2747 4153 
Q 2428 4238 2131 4238 
Q 1616 4238 1336 4038 
Q 1056 3838 1056 3469 
Q 1056 3159 1242 3001 
Q 1428 2844 1947 2747 
L 2328 2669 
Q 3034 2534 3370 2195 
Q 3706 1856 3706 1288 
Q 3706 609 3251 259 
Q 2797 -91 1919 -91 
Q 1588 -91 1214 -16 
Q 841 59 441 206 
L 441 856 
Q 825 641 1194 531 
Q 1563 422 1919 422 
Q 2459 422 2753 634 
Q 3047 847 3047 1241 
Q 3047 1584 2836 1778 
Q 2625 1972 2144 2069 
L 1759 2144 
Q 1053 2284 737 2584 
Q 422 2884 422 3419 
Q 422 4038 858 4394 
Q 1294 4750 2059 4750 
Q 2388 4750 2728 4690 
Q 3069 4631 3425 4513 
z
" transform="scale(0.015625)"/>
       <path id="DejaVuSans-30" d="M 628 4666 
L 1569 4666 
L 2759 1491 
L 3956 4666 
L 4897 4666 
L 4897 0 
L 4281 0 
L 4281 4097 
L 3078 897 
L 2444 897 
L 1241 4097 
L 1241 0 
L 628 0 
L 628 4666 
z
" transform="scale(0.015625)"/>
       <path id="DejaVuSans-29" d="M 628 4666 
L 3309 4666 
L 3309 4134 
L 1259 4134 
L 1259 2759 
L 3109 2759 
L 3109 2228 
L 1259 2228 
L 1259 0 
L 628 0 
L 628 4666 
z
" transform="scale(0.015625)"/>
       <path id="DejaVuSans-16" d="M 2597 2516 
Q 3050 2419 3304 2112 
Q 3559 1806 3559 1356 
Q 3559 666 3084 287 
Q 2609 -91 1734 -91 
Q 1441 -91 1130 -33 
Q 819 25 488 141 
L 488 750 
Q 750 597 1062 519 
Q 1375 441 1716 441 
Q 2309 441 2620 675 
Q 2931 909 2931 1356 
Q 2931 1769 2642 2001 
Q 2353 2234 1838 2234 
L 1294 2234 
L 1294 2753 
L 1863 2753 
Q 2328 2753 2575 2939 
Q 2822 3125 2822 3475 
Q 2822 3834 2567 4026 
Q 2313 4219 1838 4219 
Q 1578 4219 1281 4162 
Q 984 4106 628 3988 
L 628 4550 
Q 988 4650 1302 4700 
Q 1616 4750 1894 4750 
Q 2613 4750 3031 4423 
Q 3450 4097 3450 3541 
Q 3450 3153 3228 2886 
Q 3006 2619 2597 2516 
z
" transform="scale(0.015625)"/>
       <path id="DejaVuSans-11" d="M 684 794 
L 1344 794 
L 1344 0 
L 684 0 
L 684 794 
z
" transform="scale(0.015625)"/>
      </defs>
      <use xlink:href="#DejaVuSans-3ac"/>
      <use xlink:href="#DejaVuSans-3cb" transform="translate(74.8125 0)"/>
      <use xlink:href="#DejaVuSans-3d0" transform="translate(127.984375 0)"/>
      <use xlink:href="#DejaVuSans-3c9" transform="translate(203.421875 0)"/>
      <use xlink:href="#DejaVuSans-3d1" transform="translate(264.953125 0)"/>
      <use xlink:href="#DejaVuSans-3c9" transform="translate(330.328125 0)"/>
      <use xlink:href="#DejaVuSans-3d1" transform="translate(391.859375 0)"/>
      <use xlink:href="#DejaVuSans-3cc" transform="translate(457.234375 0)"/>
      <use xlink:href="#DejaVuSans-3c9" transform="translate(522.21875 0)"/>
      <use xlink:href="#DejaVuSans-3" transform="translate(583.75 0)"/>
      <use xlink:href="#DejaVuSans-3c8" transform="translate(615.53125 0)"/>
      <use xlink:href="#DejaVuSans-3d2" transform="translate(684.671875 0)"/>
      <use xlink:href="#DejaVuSans-3cf" transform="translate(745.859375 0)"/>
      <use xlink:href="#DejaVuSans-3cc" transform="translate(809.78125 0)"/>
      <use xlink:href="#DejaVuSans-3" transform="translate(874.765625 0)"/>
      <use xlink:href="#DejaVuSans-36" transform="translate(906.546875 0)"/>
      <use xlink:href="#DejaVuSans-30" transform="translate(970.03125 0)"/>
      <use xlink:href="#DejaVuSans-29" transform="translate(1056.3125 0)"/>
      <use xlink:href="#DejaVuSans-16" transform="translate(1113.828125 0)"/>
      <use xlink:href="#DejaVuSans-f" transform="translate(1177.453125 0)"/>
      <use xlink:href="#DejaVuSans-3" transform="translate(1209.234375 0)"/>
      <use xlink:href="#DejaVuSans-3d3" transform="translate(1241.015625 0)"/>
      <use xlink:href="#DejaVuSans-11" transform="translate(1306.390625 0)"/>
      <use xlink:href="#DejaVuSans-3d3" transform="translate(1338.171875 0)"/>
      <use xlink:href="#DejaVuSans-11" transform="translate(1403.546875 0)"/>
     </g>
    </g>
   </g>
   <g id="LineCollection_1">
    <path d="M 58.679545 149.34144 
L 58.679545 145.57824 
" clip-path="url(#pb29210f502)" style="fill: none; stroke: #156a8a; stroke-width: 1.5"/>
    <path d="M 266.335048 92.89344 
L 266.335048 82.14144 
" clip-path="url(#pb29210f502)" style="fill: none; stroke: #156a8a; stroke-width: 1.5"/>
    <path d="M 404.772049 57.7344 
L 404.772049 30.42432 
" clip-path="url(#pb29210f502)" style="fill: none; stroke: #156a8a; stroke-width: 1.5"/>
   </g>
   <g id="line2d_16">
    <defs>
     <path id="m12984811b2" d="M 4 0 
L -4 -0 
" style="stroke: #156a8a"/>
    </defs>
    <g clip-path="url(#pb29210f502)">
     <use xlink:href="#m12984811b2" x="58.679545" y="149.34144" style="fill: #156a8a; stroke: #156a8a"/>
     <use xlink:href="#m12984811b2" x="266.335048" y="92.89344" style="fill: #156a8a; stroke: #156a8a"/>
     <use xlink:href="#m12984811b2" x="404.772049" y="57.7344" style="fill: #156a8a; stroke: #156a8a"/>
    </g>
   </g>
   <g id="line2d_17">
    <g clip-path="url(#pb29210f502)">
     <use xlink:href="#m12984811b2" x="58.679545" y="145.57824" style="fill: #156a8a; stroke: #156a8a"/>
     <use xlink:href="#m12984811b2" x="266.335048" y="82.14144" style="fill: #156a8a; stroke: #156a8a"/>
     <use xlink:href="#m12984811b2" x="404.772049" y="30.42432" style="fill: #156a8a; stroke: #156a8a"/>
    </g>
   </g>
   <g id="LineCollection_2">
    <path d="M 67.677951 148.0512 
L 67.677951 143.96544 
" clip-path="url(#pb29210f502)" style="fill: none; stroke: #c36c2f; stroke-width: 1.5"/>
    <path d="M 275.333453 91.0656 
L 275.333453 81.81888 
" clip-path="url(#pb29210f502)" style="fill: none; stroke: #c36c2f; stroke-width: 1.5"/>
    <path d="M 413.770455 54.40128 
L 413.770455 42.35904 
" clip-path="url(#pb29210f502)" style="fill: none; stroke: #c36c2f; stroke-width: 1.5"/>
   </g>
   <g id="line2d_18">
    <defs>
     <path id="mc979dfa5ec" d="M 4 0 
L -4 -0 
" style="stroke: #c36c2f"/>
    </defs>
    <g clip-path="url(#pb29210f502)">
     <use xlink:href="#mc979dfa5ec" x="67.677951" y="148.0512" style="fill: #c36c2f; stroke: #c36c2f"/>
     <use xlink:href="#mc979dfa5ec" x="275.333453" y="91.0656" style="fill: #c36c2f; stroke: #c36c2f"/>
     <use xlink:href="#mc979dfa5ec" x="413.770455" y="54.40128" style="fill: #c36c2f; stroke: #c36c2f"/>
    </g>
   </g>
   <g id="line2d_19">
    <g clip-path="url(#pb29210f502)">
     <use xlink:href="#mc979dfa5ec" x="67.677951" y="143.96544" style="fill: #c36c2f; stroke: #c36c2f"/>
     <use xlink:href="#mc979dfa5ec" x="275.333453" y="81.81888" style="fill: #c36c2f; stroke: #c36c2f"/>
     <use xlink:href="#mc979dfa5ec" x="413.770455" y="42.35904" style="fill: #c36c2f; stroke: #c36c2f"/>
    </g>
   </g>
   <g id="line2d_20">
    <path d="M 63.178748 147.619892 
L 270.83425 88.426873 
L 409.271252 47.236583 
" clip-path="url(#pb29210f502)" style="fill: none; stroke-dasharray: 3.7,1.6; stroke-dashoffset: 0; stroke: #000000"/>
   </g>
   <g id="line2d_21">
    <path d="M 58.679545 147.94368 
L 266.335048 88.70016 
L 404.772049 44.07936 
" clip-path="url(#pb29210f502)" style="fill: none; stroke: #156a8a; stroke-width: 1.5; stroke-linecap: square"/>
    <defs>
     <path id="mda7b9fcd3e" d="M 0 3 
C 0.795609 3 1.55874 2.683901 2.12132 2.12132 
C 2.683901 1.55874 3 0.795609 3 0 
C 3 -0.795609 2.683901 -1.55874 2.12132 -2.12132 
C 1.55874 -2.683901 0.795609 -3 0 -3 
C -0.795609 -3 -1.55874 -2.683901 -2.12132 -2.12132 
C -2.683901 -1.55874 -3 -0.795609 -3 0 
C -3 0.795609 -2.683901 1.55874 -2.12132 2.12132 
C -1.55874 2.683901 -0.795609 3 0 3 
z
" style="stroke: #156a8a"/>
    </defs>
    <g clip-path="url(#pb29210f502)">
     <use xlink:href="#mda7b9fcd3e" x="58.679545" y="147.94368" style="fill: #156a8a; stroke: #156a8a"/>
     <use xlink:href="#mda7b9fcd3e" x="266.335048" y="88.70016" style="fill: #156a8a; stroke: #156a8a"/>
     <use xlink:href="#mda7b9fcd3e" x="404.772049" y="44.07936" style="fill: #156a8a; stroke: #156a8a"/>
    </g>
   </g>
   <g id="line2d_22">
    <path d="M 67.677951 146.00832 
L 275.333453 87.08736 
L 413.770455 49.1328 
" clip-path="url(#pb29210f502)" style="fill: none; stroke: #c36c2f; stroke-width: 1.5; stroke-linecap: square"/>
    <defs>
     <path id="md599cafcb7" d="M -3 3 
L 3 3 
L 3 -3 
L -3 -3 
z
" style="stroke: #c36c2f; stroke-linejoin: miter"/>
    </defs>
    <g clip-path="url(#pb29210f502)">
     <use xlink:href="#md599cafcb7" x="67.677951" y="146.00832" style="fill: #c36c2f; stroke: #c36c2f; stroke-linejoin: miter"/>
     <use xlink:href="#md599cafcb7" x="275.333453" y="87.08736" style="fill: #c36c2f; stroke: #c36c2f; stroke-linejoin: miter"/>
     <use xlink:href="#md599cafcb7" x="413.770455" y="49.1328" style="fill: #c36c2f; stroke: #c36c2f; stroke-linejoin: miter"/>
    </g>
   </g>
   <g id="patch_3">
    <path d="M 40.925 184.608 
L 40.925 7.2 
" style="fill: none; stroke: #000000; stroke-width: 0.8; stroke-linejoin: miter; stroke-linecap: square"/>
   </g>
   <g id="patch_4">
    <path d="M 40.925 184.608 
L 431.525 184.608 
" style="fill: none; stroke: #000000; stroke-width: 0.8; stroke-linejoin: miter; stroke-linecap: square"/>
   </g>
   <g id="legend_1">
    <g id="line2d_23">
     <path d="M 49.925 20.298437 
L 59.925 20.298437 
L 69.925 20.298437 
" style="fill: none; stroke-dasharray: 3.7,1.6; stroke-dashoffset: 0; stroke: #000000"/>
    </g>
    <g id="text_12">
     <!-- Модель -->
     <g transform="translate(77.925 23.798437) scale(0.1 -0.1)">
      <defs>
       <path id="DejaVuSans-3b0" d="M 628 4666 
L 1569 4666 
L 2759 1491 
L 3956 4666 
L 4897 4666 
L 4897 0 
L 4281 0 
L 4281 4097 
L 3078 897 
L 2444 897 
L 1241 4097 
L 1241 0 
L 628 0 
L 628 4666 
z
" transform="scale(0.015625)"/>
       <path id="DejaVuSans-3e0" d="M 2781 1038 
Q 2781 1319 2576 1466 
Q 2372 1613 1978 1613 
L 1159 1613 
L 1159 459 
L 1978 459 
Q 2372 459 2576 607 
Q 2781 756 2781 1038 
z
M 581 3500 
L 1159 3500 
L 1159 2072 
L 2003 2072 
Q 2672 2072 3033 1817 
Q 3394 1563 3394 1038 
Q 3394 513 3033 256 
Q 2672 0 2003 0 
L 581 0 
L 581 3500 
z
" transform="scale(0.015625)"/>
      </defs>
      <use xlink:href="#DejaVuSans-3b0"/>
      <use xlink:href="#DejaVuSans-3d2" transform="translate(86.28125 0)"/>
      <use xlink:href="#DejaVuSans-3c8" transform="translate(147.46875 0)"/>
      <use xlink:href="#DejaVuSans-3c9" transform="translate(216.609375 0)"/>
      <use xlink:href="#DejaVuSans-3cf" transform="translate(278.140625 0)"/>
      <use xlink:href="#DejaVuSans-3e0" transform="translate(342.0625 0)"/>
     </g>
    </g>
    <g id="LineCollection_3">
     <path d="M 148.025 25.298437 
L 148.025 15.298437 
" style="fill: none; stroke: #156a8a; stroke-width: 1.5"/>
    </g>
    <g id="line2d_24">
     <g>
      <use xlink:href="#m12984811b2" x="148.025" y="25.298437" style="fill: #156a8a; stroke: #156a8a"/>
     </g>
    </g>
    <g id="line2d_25">
     <g>
      <use xlink:href="#m12984811b2" x="148.025" y="15.298437" style="fill: #156a8a; stroke: #156a8a"/>
     </g>
    </g>
    <g id="line2d_26">
     <path d="M 138.025 20.298437 
L 158.025 20.298437 
" style="fill: none; stroke: #156a8a; stroke-width: 1.5; stroke-linecap: square"/>
    </g>
    <g id="line2d_27">
     <g>
      <use xlink:href="#mda7b9fcd3e" x="148.025" y="20.298437" style="fill: #156a8a; stroke: #156a8a"/>
     </g>
    </g>
    <g id="text_13">
     <!-- SWRR -->
     <g transform="translate(166.025 23.798437) scale(0.1 -0.1)">
      <defs>
       <path id="DejaVuSans-3a" d="M 213 4666 
L 850 4666 
L 1831 722 
L 2809 4666 
L 3519 4666 
L 4500 722 
L 5478 4666 
L 6119 4666 
L 4947 0 
L 4153 0 
L 3169 4050 
L 2175 0 
L 1381 0 
L 213 4666 
z
" transform="scale(0.015625)"/>
       <path id="DejaVuSans-35" d="M 2841 2188 
Q 3044 2119 3236 1894 
Q 3428 1669 3622 1275 
L 4263 0 
L 3584 0 
L 2988 1197 
Q 2756 1666 2539 1819 
Q 2322 1972 1947 1972 
L 1259 1972 
L 1259 0 
L 628 0 
L 628 4666 
L 2053 4666 
Q 2853 4666 3247 4331 
Q 3641 3997 3641 3322 
Q 3641 2881 3436 2590 
Q 3231 2300 2841 2188 
z
M 1259 4147 
L 1259 2491 
L 2053 2491 
Q 2509 2491 2742 2702 
Q 2975 2913 2975 3322 
Q 2975 3731 2742 3939 
Q 2509 4147 2053 4147 
L 1259 4147 
z
" transform="scale(0.015625)"/>
      </defs>
      <use xlink:href="#DejaVuSans-36"/>
      <use xlink:href="#DejaVuSans-3a" transform="translate(63.484375 0)"/>
      <use xlink:href="#DejaVuSans-35" transform="translate(162.359375 0)"/>
      <use xlink:href="#DejaVuSans-35" transform="translate(231.84375 0)"/>
     </g>
    </g>
    <g id="LineCollection_4">
     <path d="M 226.157813 25.298437 
L 226.157813 15.298437 
" style="fill: none; stroke: #c36c2f; stroke-width: 1.5"/>
    </g>
    <g id="line2d_28">
     <g>
      <use xlink:href="#mc979dfa5ec" x="226.157813" y="25.298437" style="fill: #c36c2f; stroke: #c36c2f"/>
     </g>
    </g>
    <g id="line2d_29">
     <g>
      <use xlink:href="#mc979dfa5ec" x="226.157813" y="15.298437" style="fill: #c36c2f; stroke: #c36c2f"/>
     </g>
    </g>
    <g id="line2d_30">
     <path d="M 216.157813 20.298437 
L 236.157813 20.298437 
" style="fill: none; stroke: #c36c2f; stroke-width: 1.5; stroke-linecap: square"/>
    </g>
    <g id="line2d_31">
     <g>
      <use xlink:href="#md599cafcb7" x="226.157813" y="20.298437" style="fill: #c36c2f; stroke: #c36c2f; stroke-linejoin: miter"/>
     </g>
    </g>
    <g id="text_14">
     <!-- Случайный -->
     <g transform="translate(244.157813 23.798437) scale(0.1 -0.1)">
      <defs>
       <path id="DejaVuSans-3b5" d="M 4122 4306 
L 4122 3641 
Q 3803 3938 3442 4084 
Q 3081 4231 2675 4231 
Q 1875 4231 1450 3742 
Q 1025 3253 1025 2328 
Q 1025 1406 1450 917 
Q 1875 428 2675 428 
Q 3081 428 3442 575 
Q 3803 722 4122 1019 
L 4122 359 
Q 3791 134 3420 21 
Q 3050 -91 2638 -91 
Q 1578 -91 968 557 
Q 359 1206 359 2328 
Q 359 3453 968 4101 
Q 1578 4750 2638 4750 
Q 3056 4750 3426 4639 
Q 3797 4528 4122 4306 
z
" transform="scale(0.015625)"/>
       <path id="DejaVuSans-3db" d="M 2625 0 
L 2625 1472 
L 1553 1472 
Q 1075 1472 756 1769 
Q 469 2038 469 2613 
L 469 3500 
L 1044 3500 
L 1044 2666 
Q 1044 2300 1206 2116 
Q 1372 1931 1697 1931 
L 2625 1931 
L 2625 3500 
L 3200 3500 
L 3200 0 
L 2625 0 
z
" transform="scale(0.015625)"/>
       <path id="DejaVuSans-3cd" d="M 3578 3500 
L 3578 0 
L 3006 0 
L 3006 2809 
L 1319 0 
L 581 0 
L 581 3500 
L 1153 3500 
L 1153 697 
L 2838 3500 
L 3578 3500 
z
M 1103 4862 
L 1472 4862 
Q 1506 4628 1657 4510 
Q 1809 4393 2081 4393 
Q 2350 4393 2500 4509 
Q 2650 4625 2690 4862 
L 3059 4862 
Q 3028 4415 2781 4190 
Q 2534 3965 2081 3965 
Q 1628 3965 1381 4190 
Q 1134 4415 1103 4862 
z
" transform="scale(0.015625)"/>
       <path id="DejaVuSans-3df" d="M 3909 3500 
L 4484 3500 
L 4484 0 
L 3909 0 
L 3909 3500 
z
M 4197 3584 
L 4197 3584 
z
M 2781 1038 
Q 2781 1319 2576 1466 
Q 2372 1613 1978 1613 
L 1159 1613 
L 1159 459 
L 1978 459 
Q 2372 459 2576 607 
Q 2781 756 2781 1038 
z
M 581 3500 
L 1159 3500 
L 1159 2072 
L 2003 2072 
Q 2672 2072 3033 1817 
Q 3394 1563 3394 1038 
Q 3394 513 3033 256 
Q 2672 0 2003 0 
L 581 0 
L 581 3500 
z
" transform="scale(0.015625)"/>
      </defs>
      <use xlink:href="#DejaVuSans-3b5"/>
      <use xlink:href="#DejaVuSans-3cf" transform="translate(69.828125 0)"/>
      <use xlink:href="#DejaVuSans-3d7" transform="translate(133.75 0)"/>
      <use xlink:href="#DejaVuSans-3db" transform="translate(192.9375 0)"/>
      <use xlink:href="#DejaVuSans-3c4" transform="translate(252.015625 0)"/>
      <use xlink:href="#DejaVuSans-3cd" transform="translate(313.296875 0)"/>
      <use xlink:href="#DejaVuSans-3d1" transform="translate(378.28125 0)"/>
      <use xlink:href="#DejaVuSans-3df" transform="translate(443.65625 0)"/>
      <use xlink:href="#DejaVuSans-3cd" transform="translate(522.609375 0)"/>
     </g>
    </g>
   </g>
  </g>
 </g>
 <defs>
  <clipPath id="pb29210f502">
   <rect x="40.925" y="7.2" width="390.6" height="177.408"/>
  </clipPath>
 </defs>
</svg>
